<svg xmlns="http://www.w3.org/2000/svg" xmlns:xlink="http://www.w3.org/1999/xlink" width="1080" zoomAndPan="magnify" viewBox="0 0 810 809.999993" height="1080" preserveAspectRatio="xMidYMid meet" version="1.0"><defs><clipPath id="78a8b00759"><path d="M 51.660156 59.917969 L 758.339844 59.917969 L 758.339844 766.59375 L 51.660156 766.59375 Z M 51.660156 59.917969 " clip-rule="nonzero"/></clipPath><clipPath id="3d98a2de4c"><path d="M 405 59.917969 C 209.855469 59.917969 51.660156 218.109375 51.660156 413.253906 C 51.660156 608.398438 209.855469 766.59375 405 766.59375 C 600.144531 766.59375 758.339844 608.398438 758.339844 413.253906 C 758.339844 218.109375 600.144531 59.917969 405 59.917969 Z M 405 59.917969 " clip-rule="nonzero"/></clipPath><clipPath id="569a36a22a"><path d="M 0.660156 0.917969 L 707.339844 0.917969 L 707.339844 707.59375 L 0.660156 707.59375 Z M 0.660156 0.917969 " clip-rule="nonzero"/></clipPath><clipPath id="e1b46c8152"><path d="M 354 0.917969 C 158.855469 0.917969 0.660156 159.109375 0.660156 354.253906 C 0.660156 549.398438 158.855469 707.59375 354 707.59375 C 549.144531 707.59375 707.339844 549.398438 707.339844 354.253906 C 707.339844 159.109375 549.144531 0.917969 354 0.917969 Z M 354 0.917969 " clip-rule="nonzero"/></clipPath><clipPath id="f16ddba1f9"><rect x="0" width="708" y="0" height="708"/></clipPath><clipPath id="3cc1e4027e"><path d="M 51.660156 43.40625 L 759 43.40625 L 759 413.253906 L 51.660156 413.253906 Z M 51.660156 43.40625 " clip-rule="nonzero"/></clipPath><clipPath id="343ba0a74e"><path d="M 287.347656 65.621094 C 323.460938 52.207031 364.765625 43.40625 405.191406 43.40625 C 445.617188 43.40625 484.515625 50.953125 520.363281 64.363281 C 521.128906 64.78125 521.890625 64.78125 522.652344 65.203125 C 657.273438 118.851562 756.429688 260.515625 758.339844 413.253906 L 51.660156 413.253906 C 53.570312 259.675781 151.199219 118.011719 287.347656 65.621094 Z M 287.347656 65.621094 " clip-rule="nonzero"/></clipPath><clipPath id="9bbcb0b7be"><path d="M 0.660156 0.40625 L 707.398438 0.40625 L 707.398438 370.253906 L 0.660156 370.253906 Z M 0.660156 0.40625 " clip-rule="nonzero"/></clipPath><clipPath id="6461e1d760"><path d="M 236.347656 22.621094 C 272.460938 9.207031 313.765625 0.40625 354.191406 0.40625 C 394.617188 0.40625 433.515625 7.953125 469.363281 21.363281 C 470.128906 21.78125 470.890625 21.78125 471.652344 22.203125 C 606.273438 75.851562 705.429688 217.515625 707.339844 370.253906 L 0.660156 370.253906 C 2.570312 216.675781 100.199219 75.011719 236.347656 22.621094 Z M 236.347656 22.621094 " clip-rule="nonzero"/></clipPath><clipPath id="321bbe17c7"><rect x="0" width="708" y="0" height="371"/></clipPath><clipPath id="33c0a00fc7"><path d="M 51.660156 351.9375 L 758.492188 351.9375 L 758.492188 458.0625 L 51.660156 458.0625 Z M 51.660156 351.9375 " clip-rule="nonzero"/></clipPath><clipPath id="8a11966b07"><path d="M 59.355469 351.9375 L 750.644531 351.9375 C 752.6875 351.9375 754.640625 352.746094 756.085938 354.1875 C 757.527344 355.632812 758.339844 357.589844 758.339844 359.628906 L 758.339844 450.371094 C 758.339844 452.410156 757.527344 454.367188 756.085938 455.8125 C 754.640625 457.253906 752.6875 458.0625 750.644531 458.0625 L 59.355469 458.0625 C 57.3125 458.0625 55.359375 457.253906 53.914062 455.8125 C 52.472656 454.367188 51.660156 452.410156 51.660156 450.371094 L 51.660156 359.628906 C 51.660156 357.589844 52.472656 355.632812 53.914062 354.1875 C 55.359375 352.746094 57.3125 351.9375 59.355469 351.9375 Z M 59.355469 351.9375 " clip-rule="nonzero"/></clipPath><clipPath id="0cfb5c0be0"><path d="M 0.660156 0.9375 L 707.398438 0.9375 L 707.398438 107.0625 L 0.660156 107.0625 Z M 0.660156 0.9375 " clip-rule="nonzero"/></clipPath><clipPath id="e620a9d97b"><path d="M 8.355469 0.9375 L 699.644531 0.9375 C 701.6875 0.9375 703.640625 1.746094 705.085938 3.1875 C 706.527344 4.632812 707.339844 6.589844 707.339844 8.628906 L 707.339844 99.371094 C 707.339844 101.410156 706.527344 103.367188 705.085938 104.8125 C 703.640625 106.253906 701.6875 107.0625 699.644531 107.0625 L 8.355469 107.0625 C 6.3125 107.0625 4.359375 106.253906 2.914062 104.8125 C 1.472656 103.367188 0.660156 101.410156 0.660156 99.371094 L 0.660156 8.628906 C 0.660156 6.589844 1.472656 4.632812 2.914062 3.1875 C 4.359375 1.746094 6.3125 0.9375 8.355469 0.9375 Z M 8.355469 0.9375 " clip-rule="nonzero"/></clipPath><clipPath id="7b8d922fc2"><rect x="0" width="708" y="0" height="108"/></clipPath><clipPath id="8d975df4dd"><path d="M 286 286 L 524 286 L 524 524 L 286 524 Z M 286 286 " clip-rule="nonzero"/></clipPath><clipPath id="c5db877e72"><path d="M 405 286 C 339.277344 286 286 339.277344 286 405 C 286 470.722656 339.277344 524 405 524 C 470.722656 524 524 470.722656 524 405 C 524 339.277344 470.722656 286 405 286 Z M 405 286 " clip-rule="nonzero"/></clipPath><clipPath id="d06de8ccd1"><path d="M 0 0 L 238 0 L 238 238 L 0 238 Z M 0 0 " clip-rule="nonzero"/></clipPath><clipPath id="616a6a2dbb"><path d="M 119 0 C 53.277344 0 0 53.277344 0 119 C 0 184.722656 53.277344 238 119 238 C 184.722656 238 238 184.722656 238 119 C 238 53.277344 184.722656 0 119 0 Z M 119 0 " clip-rule="nonzero"/></clipPath><clipPath id="46a4e579ae"><rect x="0" width="238" y="0" height="238"/></clipPath><clipPath id="7a26e49ff1"><path d="M 342.347656 342.347656 L 467.652344 342.347656 L 467.652344 467.652344 L 342.347656 467.652344 Z M 342.347656 342.347656 " clip-rule="nonzero"/></clipPath><clipPath id="1bbd0005e7"><path d="M 405 342.347656 C 370.398438 342.347656 342.347656 370.398438 342.347656 405 C 342.347656 439.601562 370.398438 467.652344 405 467.652344 C 439.601562 467.652344 467.652344 439.601562 467.652344 405 C 467.652344 370.398438 439.601562 342.347656 405 342.347656 Z M 405 342.347656 " clip-rule="nonzero"/></clipPath><clipPath id="262717e075"><path d="M 0.347656 0.347656 L 125.652344 0.347656 L 125.652344 125.652344 L 0.347656 125.652344 Z M 0.347656 0.347656 " clip-rule="nonzero"/></clipPath><clipPath id="6c4f65ad72"><path d="M 63 0.347656 C 28.398438 0.347656 0.347656 28.398438 0.347656 63 C 0.347656 97.601562 28.398438 125.652344 63 125.652344 C 97.601562 125.652344 125.652344 97.601562 125.652344 63 C 125.652344 28.398438 97.601562 0.347656 63 0.347656 Z M 63 0.347656 " clip-rule="nonzero"/></clipPath><clipPath id="3a13feed15"><rect x="0" width="126" y="0" height="126"/></clipPath></defs><g clip-path="url(#78a8b00759)"><g clip-path="url(#3d98a2de4c)"><g transform="matrix(1, 0, 0, 1, 51, 59)"><g clip-path="url(#f16ddba1f9)"><g clip-path="url(#569a36a22a)"><g clip-path="url(#e1b46c8152)"><path fill="#ffffff" d="M 0.660156 0.917969 L 707.339844 0.917969 L 707.339844 707.59375 L 0.660156 707.59375 Z M 0.660156 0.917969 " fill-opacity="1" fill-rule="nonzero"/></g></g></g></g></g></g><g clip-path="url(#3cc1e4027e)"><g clip-path="url(#343ba0a74e)"><g transform="matrix(1, 0, 0, 1, 51, 43)"><g clip-path="url(#321bbe17c7)"><g clip-path="url(#9bbcb0b7be)"><g clip-path="url(#6461e1d760)"><path fill="#ff5757" d="M 0.660156 0.40625 L 707.128906 0.40625 L 707.128906 370.253906 L 0.660156 370.253906 Z M 0.660156 0.40625 " fill-opacity="1" fill-rule="nonzero"/></g></g></g></g></g></g><g clip-path="url(#33c0a00fc7)"><g clip-path="url(#8a11966b07)"><g transform="matrix(1, 0, 0, 1, 51, 351)"><g clip-path="url(#7b8d922fc2)"><g clip-path="url(#0cfb5c0be0)"><g clip-path="url(#e620a9d97b)"><path fill="#434a53" d="M 0.660156 0.9375 L 707.492188 0.9375 L 707.492188 107.0625 L 0.660156 107.0625 Z M 0.660156 0.9375 " fill-opacity="1" fill-rule="nonzero"/></g></g></g></g></g></g><g clip-path="url(#8d975df4dd)"><g clip-path="url(#c5db877e72)"><g transform="matrix(1, 0, 0, 1, 286, 286)"><g clip-path="url(#46a4e579ae)"><g clip-path="url(#d06de8ccd1)"><g clip-path="url(#616a6a2dbb)"><rect x="-464.2" width="1166.4" fill="#434a53" height="1166.39999" y="-464.199998" fill-opacity="1"/></g></g></g></g></g></g><g clip-path="url(#7a26e49ff1)"><g clip-path="url(#1bbd0005e7)"><g transform="matrix(1, 0, 0, 1, 342, 342)"><g clip-path="url(#3a13feed15)"><g clip-path="url(#262717e075)"><g clip-path="url(#6c4f65ad72)"><path fill="#e4e7eb" d="M 0.347656 0.347656 L 125.652344 0.347656 L 125.652344 125.652344 L 0.347656 125.652344 Z M 0.347656 0.347656 " fill-opacity="1" fill-rule="nonzero"/></g></g></g></g></g></g></svg>